<svg xmlns="http://www.w3.org/2000/svg" width="63" height="42" viewBox="0 0 63 42" fill="none">
  <path d="M23 41.3495V40.7249L24.5509 40.1628C25.3781 39.8296 26.0189 39.4341 26.4739 38.976C26.929 38.4763 27.3012 37.7892 27.5905 36.9148L40.3697 0H45.6426L58.2356 37.1646C58.5666 38.0807 58.9388 38.7886 59.3522 39.2883C59.7656 39.7464 60.4068 40.1419 61.2753 40.4751L62.0197 40.7249V41.3495H46.2629V40.7249L47.1934 40.4126C48.0619 40.0795 48.579 39.6215 48.7443 39.0385C48.9512 38.4138 48.9304 37.6851 48.6823 36.8523L45.7667 27.8578H31.995L29.0173 36.6649C28.728 37.581 28.6243 38.3098 28.7072 38.8511C28.8312 39.3924 29.3275 39.8296 30.196 40.1628L31.5608 40.7249V41.3495H23ZM32.4292 26.6086H45.3944L39.129 7.18308L32.4292 26.6086Z" fill="#461F09"/>
  <path d="M6.37404 41.9384C4.57504 41.9384 3.0552 41.4231 1.81451 40.3925C0.604836 39.3618 0 37.8784 0 35.9421C0 34.4742 0.744413 33.1313 2.23324 31.9133C3.72207 30.6641 6.06387 29.7272 9.25865 29.1025C9.75492 29.0088 10.3132 28.9152 10.9336 28.8215C11.5539 28.6965 12.2053 28.5716 12.8877 28.4467V24.7458C12.8877 22.6222 12.624 21.1387 12.0967 20.2955C11.6004 19.421 10.8095 18.9838 9.7239 18.9838C8.97949 18.9838 8.39016 19.2336 7.95592 19.7333C7.52168 20.2018 7.24253 21.0294 7.11846 22.2162L7.0254 22.7315C6.96337 24.0744 6.63769 25.0582 6.04836 25.6828C5.45903 26.3074 4.73013 26.6197 3.86165 26.6197C3.0552 26.6197 2.38833 26.3698 1.86103 25.8702C1.33374 25.3705 1.07009 24.699 1.07009 23.8558C1.07009 22.5753 1.50434 21.4978 2.37282 20.6234C3.27232 19.7489 4.45097 19.0931 5.90878 18.6558C7.36659 18.2186 8.94847 18 10.6544 18C13.415 18 15.5396 18.6871 17.0285 20.0612C18.5483 21.4042 19.3082 23.6059 19.3082 26.6665V37.0195C19.3082 38.4249 19.9596 39.1276 21.2623 39.1276H22.2859L22.7046 39.5024C22.1153 40.2519 21.4639 40.8297 20.7505 41.2357C20.0682 41.6417 19.0911 41.8447 17.8194 41.8447C16.4546 41.8447 15.369 41.5324 14.5626 40.9078C13.7872 40.2519 13.2754 39.3931 13.0272 38.3312C12.0967 39.3306 11.1352 40.1895 10.1426 40.9078C9.1811 41.5948 7.9249 41.9384 6.37404 41.9384ZM9.21212 39.0808C9.83247 39.0808 10.4063 38.9402 10.9336 38.6592C11.4919 38.3468 12.1432 37.8784 12.8877 37.2538V29.3836C12.5775 29.4461 12.2673 29.5085 11.9571 29.571C11.647 29.6335 11.2903 29.6959 10.887 29.7584C9.46026 30.1332 8.31262 30.7734 7.44414 31.6791C6.60667 32.5535 6.18794 33.7403 6.18794 35.2394C6.18794 36.5198 6.4826 37.488 7.07193 38.1438C7.66126 38.7685 8.37465 39.0808 9.21212 39.0808Z" fill="#461F09"/>
</svg>