<svg xmlns="http://www.w3.org/2000/svg" width="228" height="52" viewBox="0 0 228 52" fill="none">
  <path d="M6.85181 40.63C5.25581 40.63 3.90747 40.168 2.80678 39.244C1.73361 38.32 1.19702 36.99 1.19702 35.254C1.19702 33.938 1.85743 32.734 3.17826 31.642C4.49909 30.522 6.57664 29.682 9.41092 29.122C9.85119 29.038 10.3465 28.954 10.8968 28.87C11.4472 28.758 12.0251 28.646 12.6304 28.534V25.216C12.6304 23.312 12.3965 21.982 11.9287 21.226C11.4885 20.442 10.7868 20.05 9.82368 20.05C9.16326 20.05 8.64043 20.274 8.25519 20.722C7.86995 21.142 7.6223 21.884 7.51223 22.948L7.42968 23.41C7.37464 24.614 7.08571 25.496 6.56288 26.056C6.04006 26.616 5.3934 26.896 4.62292 26.896C3.90747 26.896 3.31585 26.672 2.84806 26.224C2.38026 25.776 2.14637 25.174 2.14637 24.418C2.14637 23.27 2.53161 22.304 3.30209 21.52C4.10009 20.736 5.14575 20.148 6.43906 19.756C7.73237 19.364 9.13575 19.168 10.6492 19.168C13.0982 19.168 14.9832 19.784 16.304 21.016C17.6523 22.22 18.3265 24.194 18.3265 26.938V36.22C18.3265 37.48 18.9044 38.11 20.0601 38.11H20.9682L21.3396 38.446C20.8168 39.118 20.239 39.636 19.6061 40C19.0007 40.364 18.1339 40.546 17.0057 40.546C15.7949 40.546 14.8318 40.266 14.1164 39.706C13.4284 39.118 12.9744 38.348 12.7543 37.396C11.9287 38.292 11.0757 39.062 10.1952 39.706C9.34212 40.322 8.22768 40.63 6.85181 40.63ZM9.36964 38.068C9.91999 38.068 10.4291 37.942 10.8968 37.69C11.3922 37.41 11.97 36.99 12.6304 36.43V29.374C12.3553 29.43 12.0801 29.486 11.8049 29.542C11.5297 29.598 11.2133 29.654 10.8556 29.71C9.58978 30.046 8.57164 30.62 7.80116 31.432C7.05819 32.216 6.68671 33.28 6.68671 34.624C6.68671 35.772 6.94812 36.64 7.47095 37.228C7.99378 37.788 8.62668 38.068 9.36964 38.068ZM28.4284 32.734C26.5297 32.734 24.92 32.412 23.5992 31.768V33.196C23.5992 34.064 24.0257 34.582 24.8787 34.75L32.6386 36.22C33.9319 36.472 35.1014 36.808 36.147 37.228C37.1927 37.62 38.032 38.194 38.6648 38.95C39.2977 39.678 39.6142 40.686 39.6142 41.974C39.6142 43.346 39.1739 44.606 38.2934 45.754C37.4128 46.93 36.1057 47.868 34.3722 48.568C32.6661 49.296 30.5335 49.66 27.9744 49.66C25.773 49.66 24.0257 49.422 22.7324 48.946C21.4391 48.498 20.5172 47.91 19.9669 47.182C19.4441 46.454 19.1826 45.684 19.1826 44.872C19.1826 43.864 19.5128 42.842 20.1733 41.806C20.8612 40.798 21.7005 39.986 22.6911 39.37C21.8381 39.034 21.2189 38.6 20.8337 38.068C20.4484 37.536 20.2558 36.962 20.2558 36.346C20.2558 35.786 20.3934 35.268 20.6686 34.792C20.9713 34.288 21.329 33.784 21.7417 33.28L23.1038 31.516C21.0951 30.34 20.0907 28.492 20.0907 25.972C20.0907 23.956 20.7924 22.318 22.1958 21.058C23.6267 19.798 25.718 19.168 28.4697 19.168C29.8731 19.168 31.0976 19.336 32.1433 19.672C33.2164 20.008 34.097 20.484 34.7849 21.1C35.6655 20.96 36.491 20.736 37.2615 20.428C38.0595 20.092 38.7749 19.644 39.4079 19.084L39.9857 19.504V21.646H35.3215C36.3121 22.766 36.8074 24.208 36.8074 25.972C36.8074 27.932 36.092 29.556 34.6611 30.844C33.2577 32.104 31.1802 32.734 28.4284 32.734ZM28.3872 31.894C29.4878 31.894 30.2858 31.432 30.7812 30.508C31.304 29.584 31.5654 28.044 31.5654 25.888C31.5654 23.732 31.304 22.22 30.7812 21.352C30.2858 20.456 29.5154 20.008 28.4697 20.008C27.4516 20.008 26.6811 20.47 26.1583 21.394C25.6354 22.29 25.374 23.816 25.374 25.972C25.374 28.128 25.6079 29.654 26.0757 30.55C26.571 31.446 27.3415 31.894 28.3872 31.894ZM22.2371 43.528C22.2371 45.18 22.7324 46.426 23.723 47.266C24.7411 48.106 26.3371 48.526 28.511 48.526C30.7949 48.526 32.5147 48.148 33.6705 47.392C34.8262 46.636 35.4041 45.572 35.4041 44.2C35.4041 43.416 35.1151 42.786 34.5373 42.31C33.9869 41.834 33.0376 41.47 31.6892 41.218L24.2183 39.79C23.9982 39.734 23.778 39.678 23.5579 39.622C23.1726 40.182 22.8562 40.812 22.6085 41.512C22.3609 42.24 22.2371 42.912 22.2371 43.528ZM48.597 19.168C50.3857 19.168 51.9129 19.546 53.1787 20.302C54.4445 21.03 55.4076 22.038 56.068 23.326C56.7559 24.586 57.0999 26.028 57.0999 27.652C57.0999 27.96 57.0861 28.282 57.0586 28.618C57.0311 28.926 56.976 29.206 56.8935 29.458H44.5933C44.6208 32.482 45.1436 34.666 46.1618 36.01C47.2074 37.326 48.7484 37.984 50.7847 37.984C52.1605 37.984 53.275 37.76 54.128 37.312C54.981 36.864 55.779 36.206 56.522 35.338L56.9348 35.716C56.0817 37.256 54.9398 38.46 53.5089 39.328C52.1055 40.196 50.4132 40.63 48.4319 40.63C46.4782 40.63 44.7446 40.21 43.2312 39.37C41.7177 38.502 40.5345 37.27 39.6815 35.674C38.8283 34.078 38.4017 32.174 38.4017 29.962C38.4017 27.666 38.8971 25.72 39.8878 24.124C40.8785 22.5 42.1442 21.268 43.6852 20.428C45.2537 19.588 46.891 19.168 48.597 19.168ZM48.4732 20.008C47.6752 20.008 46.9873 20.26 46.4094 20.764C45.8591 21.24 45.4188 22.108 45.0886 23.368C44.7859 24.6 44.6208 26.35 44.5933 28.618H51.6515C51.9266 25.566 51.8166 23.368 51.3212 22.024C50.8259 20.68 49.8766 20.008 48.4732 20.008ZM56.68 40V39.58L57.2579 39.412C58.221 39.132 58.7025 38.446 58.7025 37.354V24.208C58.7025 23.592 58.6062 23.144 58.4136 22.864C58.221 22.556 57.8495 22.346 57.2992 22.234L56.68 22.066V21.646L63.7382 19.21L64.151 19.63L64.4812 22.15C65.4443 21.282 66.5312 20.568 67.742 20.008C68.9527 19.448 70.1497 19.168 71.333 19.168C73.1491 19.168 74.5387 19.672 75.5018 20.68C76.4924 21.688 76.9877 23.228 76.9877 25.3V37.396C76.9877 38.488 77.5106 39.174 78.5562 39.454L78.9277 39.58V40H69.1866V39.58L69.7232 39.412C70.6863 39.104 71.1679 38.418 71.1679 37.354V23.956C71.1679 22.164 70.2873 21.268 68.5262 21.268C67.3154 21.268 65.9946 21.884 64.5637 23.116V37.396C64.5637 38.488 65.0453 39.174 66.0084 39.454L66.3799 39.58V40H56.68ZM88.3024 40.63C86.4313 40.63 84.7252 40.224 83.1842 39.412C81.6708 38.572 80.46 37.368 79.552 35.8C78.6714 34.204 78.2311 32.258 78.2311 29.962C78.2311 27.694 78.7127 25.762 79.6758 24.166C80.6664 22.542 81.9735 21.31 83.597 20.47C85.248 19.602 87.0504 19.168 89.0041 19.168C90.6001 19.168 91.9485 19.434 93.0492 19.966C94.1499 20.498 94.9891 21.198 95.567 22.066C96.1449 22.906 96.4338 23.788 96.4338 24.712C96.4338 25.496 96.1999 26.112 95.7321 26.56C95.2643 26.98 94.6589 27.19 93.916 27.19C93.118 27.19 92.4713 26.896 91.976 26.308C91.4807 25.72 91.1918 24.95 91.1092 23.998C91.0817 23.382 91.0955 22.864 91.1505 22.444C91.2055 21.996 91.2055 21.548 91.1505 21.1C91.0404 20.624 90.8615 20.316 90.6139 20.176C90.3938 20.008 90.0773 19.924 89.6646 19.924C87.986 19.924 86.6789 20.666 85.7433 22.15C84.8353 23.634 84.3812 26 84.3812 29.248C84.3812 32.076 84.8903 34.246 85.9085 35.758C86.9541 37.242 88.5501 37.984 90.6964 37.984C91.9898 37.984 93.0354 37.746 93.8334 37.27C94.6314 36.794 95.4019 36.08 96.1449 35.128L96.5576 35.464C95.8697 37.116 94.8103 38.39 93.3794 39.286C91.9485 40.182 90.2562 40.63 88.3024 40.63ZM99.5413 50.08C98.4406 50.08 97.56 49.8 96.8996 49.24C96.2667 48.68 95.9503 47.966 95.9503 47.098C95.9503 46.314 96.2254 45.684 96.7758 45.208C97.3261 44.732 97.9453 44.494 98.6332 44.494C99.3211 44.494 99.899 44.634 100.367 44.914C100.835 45.222 101.247 45.656 101.605 46.216L101.894 46.552C102.499 47.392 103.105 47.378 103.71 46.51C103.958 46.09 104.233 45.53 104.536 44.83C104.866 44.158 105.237 43.248 105.65 42.1L97.6426 22.612C97.45 22.08 97.2436 21.66 97.0234 21.352C96.8033 21.016 96.4456 20.736 95.9503 20.512L95.2073 20.218V19.798H105.485V20.176L104.659 20.512C104.054 20.708 103.738 21.03 103.71 21.478C103.71 21.898 103.82 22.43 104.04 23.074L108.333 34.414L112.419 22.948C112.639 22.304 112.722 21.772 112.667 21.352C112.612 20.904 112.268 20.596 111.635 20.428L110.768 20.218V19.798H116.506V20.218L115.598 20.512C114.965 20.708 114.524 20.988 114.277 21.352C114.029 21.716 113.795 22.22 113.575 22.864L106.93 41.302C105.856 44.242 104.783 46.44 103.71 47.896C102.637 49.352 101.247 50.08 99.5413 50.08Z" fill="#3C3C3C"/>
  <path d="M110.265 40V39.44L111.641 38.936C112.375 38.6373 112.943 38.2827 113.347 37.872C113.75 37.424 114.081 36.808 114.337 36.024L125.674 2.92798H130.352L141.524 36.248C141.818 37.0693 142.148 37.704 142.515 38.152C142.882 38.5627 143.451 38.9173 144.221 39.216L144.881 39.44V40H130.903V39.44L131.728 39.16C132.499 38.8613 132.957 38.4507 133.104 37.928C133.288 37.368 133.269 36.7147 133.049 35.968L130.462 27.904H118.245L115.603 35.8C115.346 36.6213 115.254 37.2747 115.328 37.76C115.438 38.2453 115.878 38.6373 116.649 38.936L117.859 39.44V40H110.265ZM118.63 26.784H130.132L124.574 9.36799L118.63 26.784ZM151.022 40.84C148.894 40.84 147.096 40.224 145.629 38.992C144.198 37.76 143.482 35.9867 143.482 33.672C143.482 31.9173 144.363 30.312 146.124 28.856C147.885 27.3627 150.655 26.2427 154.434 25.496C155.021 25.384 155.682 25.272 156.415 25.16C157.149 25.0107 157.92 24.8613 158.727 24.712V20.288C158.727 17.7493 158.415 15.976 157.791 14.968C157.204 13.9227 156.269 13.4 154.985 13.4C154.104 13.4 153.407 13.6987 152.893 14.296C152.379 14.856 152.049 15.8453 151.903 17.264L151.793 17.88C151.719 19.4853 151.334 20.6613 150.637 21.408C149.94 22.1547 149.077 22.528 148.05 22.528C147.096 22.528 146.308 22.2293 145.684 21.632C145.06 21.0347 144.748 20.232 144.748 19.224C144.748 17.6933 145.262 16.4053 146.289 15.36C147.353 14.3147 148.747 13.5307 150.472 13.008C152.196 12.4853 154.067 12.224 156.085 12.224C159.351 12.224 161.864 13.0453 163.625 14.688C165.423 16.2933 166.322 18.9253 166.322 22.584V34.96C166.322 36.64 167.092 37.48 168.633 37.48H169.844L170.339 37.928C169.642 38.824 168.872 39.5147 168.028 40C167.221 40.4852 166.065 40.728 164.561 40.728C162.946 40.728 161.662 40.3548 160.708 39.608C159.791 38.824 159.186 37.7973 158.892 36.528C157.791 37.7227 156.654 38.7493 155.48 39.608C154.343 40.4292 152.857 40.84 151.022 40.84ZM154.379 37.424C155.113 37.424 155.792 37.256 156.415 36.92C157.076 36.5467 157.846 35.9867 158.727 35.24V25.832C158.36 25.9067 157.993 25.9813 157.626 26.056C157.259 26.1307 156.837 26.2053 156.36 26.28C154.673 26.728 153.315 27.4933 152.288 28.576C151.297 29.6213 150.802 31.04 150.802 32.832C150.802 34.3627 151.151 35.52 151.848 36.304C152.545 37.0507 153.389 37.424 154.379 37.424ZM179.837 40.84C177.672 40.84 175.727 40.3548 174.003 39.384C172.279 38.376 170.903 36.8453 169.876 34.792C168.885 32.7013 168.39 30.032 168.39 26.784C168.39 23.4987 168.958 20.792 170.096 18.664C171.233 16.4987 172.738 14.8933 174.609 13.848C176.48 12.7653 178.516 12.224 180.718 12.224C182.001 12.224 183.231 12.3547 184.405 12.616C185.579 12.8773 186.624 13.2693 187.542 13.792V6.51199C187.542 5.72799 187.413 5.14931 187.157 4.77599C186.936 4.40267 186.441 4.14131 185.671 3.99199L184.625 3.76799V3.20799L194.641 0.743988L195.247 1.24799L195.026 9.08799V36.472C195.026 37.2187 195.155 37.8347 195.412 38.32C195.668 38.768 196.145 39.0853 196.843 39.272L197.338 39.44V40L187.927 40.616L187.432 38.6C186.441 39.272 185.303 39.8133 184.02 40.224C182.772 40.6348 181.378 40.84 179.837 40.84ZM183.029 38.768C184.57 38.768 185.982 38.3013 187.267 37.368V15.136C185.909 14.24 184.515 13.792 183.084 13.792C181.323 13.792 179.818 14.8373 178.571 16.928C177.323 18.9813 176.7 22.2293 176.7 26.672C176.7 31.1147 177.287 34.2507 178.461 36.08C179.635 37.872 181.158 38.768 183.029 38.768ZM206.216 40.84C204.785 40.84 203.464 40.56 202.253 40C201.079 39.44 200.144 38.544 199.447 37.312C198.786 36.0427 198.474 34.3813 198.511 32.328L198.676 17.936C198.676 17.0773 198.529 16.4613 198.236 16.088C197.942 15.7147 197.483 15.4533 196.86 15.304L196.2 15.08V14.52L206.051 12.56L206.601 13.12L206.326 21.072V34.568C206.326 35.7627 206.656 36.64 207.316 37.2C208.013 37.76 208.876 38.04 209.903 38.04C210.93 38.04 211.847 37.8907 212.655 37.592C213.462 37.2933 214.269 36.8453 215.076 36.248L215.296 17.992C215.296 17.1333 215.168 16.536 214.911 16.2C214.654 15.8267 214.177 15.5653 213.48 15.416L212.93 15.248V14.688L222.561 12.56L223.111 13.12L222.946 21.072V36.248C222.946 37.0693 223.056 37.704 223.276 38.152C223.497 38.6 223.973 38.9733 224.707 39.272L225.258 39.44V40L215.627 40.56L215.131 37.256C213.921 38.264 212.6 39.1227 211.169 39.832C209.775 40.504 208.124 40.84 206.216 40.84Z" fill="#461F09"/>
</svg>